<?xml version="1.0" standalone="no"?>
<!DOCTYPE svg PUBLIC "-//W3C//DTD SVG 20010904//EN"
 "http://www.w3.org/TR/2001/REC-SVG-20010904/DTD/svg10.dtd">
<svg version="1.0" xmlns="http://www.w3.org/2000/svg"
 width="640.000000pt" height="640.000000pt" viewBox="0 0 640.000000 640.000000"
 preserveAspectRatio="xMidYMid meet">

<g transform="translate(0.000000,640.000000) scale(0.100000,-0.100000)"
fill="#000000" stroke="none">
<path d="M3102 6073 c-71 -104 -166 -176 -317 -242 -268 -118 -678 -194 -1130
-209 l-200 -7 0 -1380 0 -1380 23 -67 c13 -38 27 -68 31 -68 4 0 15 -16 25
-36 39 -82 215 -289 355 -418 25 -23 58 -54 75 -71 33 -32 120 -106 245 -210
13 -11 40 -34 60 -50 20 -17 56 -47 81 -65 25 -19 54 -42 65 -51 99 -82 172
-137 330 -249 35 -25 135 -98 224 -163 129 -94 168 -117 194 -117 33 0 88 35
330 207 100 70 396 292 447 335 25 20 99 81 165 135 206 168 252 209 421 378
126 126 246 274 297 366 61 110 57 12 55 1524 l-3 1380 -200 7 c-189 6 -595
48 -660 68 -16 5 -72 19 -124 30 -343 77 -582 212 -677 385 -6 12 -24 21 -42
23 -27 3 -35 -3 -70 -55z m143 -137 c73 -79 239 -174 385 -221 47 -15 111 -36
142 -46 181 -59 701 -129 955 -129 l83 0 -2 -1347 -3 -1348 -34 -70 c-19 -38
-42 -81 -53 -95 -93 -122 -132 -167 -211 -249 -101 -102 -255 -246 -357 -331
-36 -30 -67 -57 -70 -60 -9 -9 -65 -54 -94 -75 -15 -11 -39 -30 -53 -43 -33
-30 -469 -357 -553 -414 -36 -24 -100 -68 -142 -98 l-77 -53 -58 44 c-32 24
-60 46 -63 49 -3 3 -25 19 -50 35 -260 173 -749 557 -969 760 -305 281 -463
487 -491 636 -7 35 -9 514 -8 1354 l3 1300 163 7 c213 9 550 51 747 93 188 40
437 137 550 215 62 42 148 124 165 155 l14 26 26 -31 c14 -18 39 -47 55 -64z"/>
<path d="M3265 5788 c-3 -7 -4 -353 -3 -768 l3 -755 199 -3 c110 -1 204 2 208
6 5 5 9 222 8 482 0 341 3 476 11 486 17 21 62 17 100 -9 19 -13 60 -38 93
-57 32 -19 69 -42 81 -50 13 -8 59 -37 102 -63 43 -26 85 -52 93 -57 8 -5 67
-41 130 -79 140 -84 154 -96 141 -119 -5 -9 -77 -60 -160 -112 -97 -61 -150
-100 -149 -110 2 -8 19 -24 38 -37 19 -12 46 -30 60 -41 14 -10 52 -33 85 -51
99 -54 134 -82 135 -107 0 -6 -35 -32 -77 -59 -43 -26 -89 -55 -103 -64 -14
-8 -34 -21 -45 -27 -61 -35 -349 -212 -402 -247 -40 -27 -63 -49 -64 -62 -5
-69 -3 -163 3 -183 l8 -22 492 2 493 3 5 883 c4 779 3 885 -10 892 -8 4 -82
10 -164 14 -366 16 -767 80 -991 158 -77 27 -210 94 -255 128 -52 39 -60 43
-65 28z"/>
<path d="M3005 5754 c-212 -154 -645 -251 -1254 -280 -68 -3 -133 -9 -143 -13
-17 -6 -18 -40 -18 -881 0 -481 0 -881 0 -888 0 -10 103 -12 498 -10 l497 3 3
285 c1 157 0 295 -3 307 -5 20 -16 15 -156 -73 -83 -52 -212 -132 -286 -177
-73 -45 -147 -90 -164 -101 -24 -15 -32 -16 -45 -5 -35 29 -12 50 206 185 118
73 222 137 230 141 64 33 190 117 190 126 0 7 -73 57 -163 111 -89 55 -195
120 -236 145 -41 25 -115 71 -165 101 -123 75 -124 83 -9 156 108 68 375 233
501 310 109 66 120 70 147 50 19 -14 20 -29 25 -498 l5 -483 202 -3 203 -2 6
26 c10 40 -2 1498 -12 1501 -5 2 -32 -13 -59 -33z"/>
<path d="M2515 5133 c-33 -19 -98 -59 -145 -88 -47 -30 -147 -91 -223 -137
-86 -52 -136 -88 -135 -97 2 -8 71 -56 153 -106 83 -51 191 -117 240 -148 123
-77 164 -99 175 -92 12 7 14 691 2 699 -4 2 -34 -11 -67 -31z"/>
<path d="M3752 5153 c-5 -10 -7 -93 -4 -185 4 -142 7 -170 22 -183 10 -9 73
-49 141 -90 l123 -74 46 25 c108 59 245 150 245 164 0 13 -128 108 -148 109
-5 1 -49 28 -99 61 -49 33 -92 60 -93 60 -2 0 -39 22 -82 49 -43 26 -92 55
-110 65 -30 15 -33 15 -41 -1z"/>
<path d="M3748 4687 c-7 -109 -3 -219 9 -224 18 -7 160 70 196 106 14 14 -7
37 -57 63 -23 11 -50 28 -61 38 -11 9 -35 22 -52 28 -30 10 -33 9 -35 -11z"/>
<path d="M3890 4457 l-135 -85 -3 -186 c-3 -216 -7 -210 94 -146 35 22 66 40
69 40 3 0 28 16 56 35 27 20 60 40 72 45 54 24 282 177 282 190 0 8 -28 33
-63 55 -131 84 -203 127 -220 131 -10 3 -74 -31 -152 -79z"/>
<path d="M3151 4161 c-12 -12 -21 -27 -21 -35 0 -7 -7 -19 -15 -26 -8 -7 -15
-8 -15 -3 0 13 -47 63 -59 63 -22 0 -41 -33 -41 -71 0 -46 -8 -48 -40 -14 -33
35 -74 31 -78 -7 -2 -15 2 -36 7 -47 16 -28 -1 -34 -42 -15 -57 27 -92 -2 -66
-54 21 -42 17 -47 -36 -47 -46 0 -50 -2 -53 -26 -2 -15 5 -32 18 -44 28 -25
25 -45 -6 -45 -66 0 -88 -55 -34 -87 40 -23 38 -38 -7 -49 -31 -7 -39 -14 -41
-37 -3 -24 2 -30 37 -45 48 -20 52 -36 14 -54 -21 -10 -28 -20 -28 -43 0 -28
3 -30 40 -33 57 -5 63 -16 25 -52 -30 -28 -31 -32 -17 -53 15 -23 43 -27 85
-13 18 6 22 4 22 -12 0 -11 -4 -22 -9 -24 -5 -1 -12 -15 -16 -29 -8 -32 19
-64 44 -53 81 34 91 32 71 -15 -26 -65 20 -95 72 -46 35 32 38 31 38 -6 0 -71
55 -96 85 -39 20 39 31 38 52 -7 26 -56 59 -57 80 -4 19 49 32 51 55 10 14
-24 23 -30 45 -27 25 3 28 8 31 43 4 54 15 61 47 31 52 -49 92 -26 76 43 -10
46 -6 49 45 25 28 -14 37 -14 50 -3 15 13 15 34 -2 88 -7 23 -6 24 31 18 41
-7 75 6 75 28 0 7 -11 27 -25 43 -35 41 -32 51 16 49 39 -1 58 12 59 40 0 12
-5 18 -49 52 l-25 18 48 21 c38 17 47 26 44 43 -3 23 -15 33 -63 50 l-30 10
39 33 c31 25 37 36 32 54 -7 22 -64 41 -85 27 -17 -10 -13 21 5 35 27 23 36
48 23 71 -9 18 -17 20 -51 15 -53 -9 -61 -1 -38 36 15 24 16 35 8 54 -13 28
-26 30 -73 7 -19 -9 -37 -14 -40 -12 -2 3 0 20 5 38 19 66 -23 92 -73 45 -34
-31 -47 -24 -47 26 0 29 -5 42 -19 50 -26 13 -44 5 -65 -30 -22 -38 -33 -38
-44 2 -4 17 -17 37 -29 45 -19 13 -24 12 -42 -6z m109 -152 c74 -16 130 -47
193 -107 76 -72 115 -152 123 -255 17 -192 -107 -367 -298 -421 -196 -55 -401
56 -483 261 -27 68 -18 222 17 293 86 176 269 270 448 229z"/>
<path d="M3071 3975 c-115 -32 -214 -132 -251 -253 -23 -75 -25 -118 -6 -187
28 -108 79 -179 168 -237 89 -58 176 -71 290 -46 128 28 241 149 273 291 36
162 -63 348 -224 420 -60 27 -177 32 -250 12z m282 -117 c37 -26 48 -39 41
-50 -8 -12 -121 -68 -137 -68 -10 0 -16 21 -20 76 -4 42 -5 80 -2 84 7 12 78
-14 118 -42z m-233 -33 c0 -57 -4 -77 -14 -81 -16 -6 -146 52 -146 65 0 25 99
90 138 91 21 0 22 -4 22 -75z m-192 -132 c15 -10 29 -20 32 -23 3 -3 20 -16
38 -29 17 -12 32 -26 32 -30 0 -11 -119 -91 -136 -91 -15 0 -19 32 -15 120 1
48 7 70 16 70 3 0 18 -8 33 -17z m547 -78 c0 -102 -9 -108 -84 -55 -34 24 -61
48 -61 54 0 19 123 97 134 86 6 -6 10 -44 11 -85z m-356 38 c-16 -27 -3 -90
21 -103 20 -11 66 -4 87 12 21 17 26 67 9 93 -9 14 -12 25 -7 25 15 0 31 -35
31 -69 0 -22 -10 -40 -32 -61 -39 -38 -69 -34 -111 12 -23 24 -28 37 -23 61 6
30 25 61 33 53 2 -2 -1 -13 -8 -23z m230 -208 c45 -22 50 -28 40 -43 -16 -25
-87 -68 -126 -77 l-32 -6 5 73 c3 40 7 79 9 85 5 15 25 8 104 -32z m-231 -47
c3 -90 0 -93 -76 -54 -47 24 -90 62 -80 71 18 18 117 65 133 63 18 -3 20 -12
23 -80z"/>
<path d="M1596 3483 c-3 -4 -6 -141 -6 -306 1 -296 1 -300 26 -355 30 -69 59
-113 138 -212 88 -111 337 -356 479 -470 17 -14 58 -48 92 -75 33 -28 80 -66
105 -85 25 -19 47 -37 50 -41 9 -11 448 -339 454 -339 3 0 32 -20 65 -45 32
-25 62 -45 65 -45 3 0 6 285 6 633 l0 633 -52 39 c-29 22 -55 42 -58 45 -3 3
-39 34 -80 70 -41 36 -104 93 -139 127 -36 35 -67 63 -71 63 -3 0 -4 -185 -2
-412 3 -226 1 -471 -3 -545 -7 -125 -9 -135 -29 -143 -14 -5 -27 -3 -38 8 -16
14 -18 51 -20 441 l-3 426 -110 68 c-60 37 -119 72 -130 77 -11 6 -57 34 -103
62 -45 29 -134 85 -197 123 -114 69 -131 87 -119 119 13 34 38 24 226 -93 60
-36 141 -86 181 -111 41 -25 113 -69 160 -98 48 -29 90 -51 94 -49 5 3 7 116
5 251 l-3 246 -488 0 c-268 0 -491 -3 -495 -7z"/>
<path d="M3750 3246 c0 -152 4 -247 10 -251 10 -6 73 26 180 90 298 180 456
266 477 260 28 -7 30 -36 6 -57 -10 -8 -67 -43 -128 -78 -60 -35 -144 -83
-185 -108 -41 -25 -93 -55 -115 -67 -120 -66 -221 -128 -232 -143 -10 -12 -13
-116 -13 -439 0 -383 -2 -424 -16 -430 -9 -3 -24 -2 -33 4 -14 9 -17 58 -21
434 l-5 424 -70 47 c-67 45 -99 57 -107 40 -1 -5 -39 -37 -83 -73 -44 -35 -86
-70 -94 -77 -7 -7 -24 -20 -37 -29 l-24 -15 0 -632 c0 -348 3 -635 6 -639 6
-5 74 40 211 142 34 25 97 71 140 103 43 31 88 65 100 75 12 10 34 27 49 38
46 34 168 129 182 142 7 7 57 48 110 90 218 176 509 467 594 595 97 146 99
155 96 498 l-3 295 -497 3 -498 2 0 -244z"/>
<path d="M3630 3096 c-25 -26 -46 -51 -48 -56 -2 -4 18 -22 43 -39 55 -37 57
-33 53 70 l-3 73 -45 -48z"/>
</g>
</svg>
